<?xml version="1.0" encoding="utf-8"?>
<!-- Generator: Adobe Illustrator 16.0.0, SVG Export Plug-In . SVG Version: 6.00 Build 0)  -->
<!DOCTYPE svg PUBLIC "-//W3C//DTD SVG 1.1//EN" "http://www.w3.org/Graphics/SVG/1.1/DTD/svg11.dtd">
<svg version="1.1" id="Layer_1" xmlns="http://www.w3.org/2000/svg" xmlns:xlink="http://www.w3.org/1999/xlink" x="0px" y="0px"
	 width="14.348px" height="14.347px" viewBox="0.826 0.826 14.348 14.347" enable-background="new 0.826 0.826 14.348 14.347"
	 xml:space="preserve">
<path fill="none" stroke="#00A8F9" stroke-width="0.7" stroke-miterlimit="10" d="M6.721,14.291l-0.005,0.005l-0.136,0.102
	l-0.456,0.341c-0.128,0.097-0.301,0.112-0.448,0.04c-0.147-0.071-0.235-0.219-0.235-0.381V13.83v-0.171v-0.008v-0.106v-1.28H4.162
	h-1.28c-0.941,0-1.706-0.765-1.706-1.706V2.882c0-0.941,0.765-1.706,1.706-1.706h10.236c0.94,0,1.706,0.765,1.706,1.706v7.677
	c0,0.941-0.766,1.706-1.706,1.706H9.421L6.721,14.291z"/>
<path fill="#00ABFD" d="M7.855,3.386c-1.69,0-3.059,1.477-3.059,3.299v0.634C4.796,7.53,4.64,7.7,4.444,7.7S4.091,7.53,4.091,7.319
	V6.685c0-2.242,1.685-4.06,3.765-4.06c2.079,0,3.764,1.818,3.764,4.06v2.286c0,0.771-0.579,1.396-1.296,1.396l-1.621-0.002
	c-0.121,0.227-0.35,0.381-0.611,0.381H7.62c-0.39,0-0.706-0.342-0.706-0.761c0-0.421,0.316-0.762,0.706-0.762h0.471
	c0.262,0,0.49,0.154,0.611,0.381l1.623,0.001c0.326,0,0.588-0.284,0.588-0.634V6.685C10.913,4.863,9.545,3.386,7.855,3.386z"/>
<path fill="#00ABFD" d="M4.218,5.924h0.253c0.281,0,0.508,0.227,0.508,0.507v1.777c0,0.279-0.227,0.507-0.508,0.507H4.218
	c-0.56,0-1.015-0.455-1.015-1.015V6.939C3.203,6.379,3.658,5.924,4.218,5.924z"/>
<path fill="#00ABFD" d="M11.783,5.924c0.56,0,1.015,0.455,1.015,1.015V7.7c0,0.56-0.455,1.015-1.015,1.015h-0.254
	c-0.281,0-0.508-0.228-0.508-0.507V6.431c0-0.281,0.227-0.507,0.508-0.507H11.783z"/>
</svg>
